<?xml version="1.0" standalone="no"?>
<!DOCTYPE svg PUBLIC "-//W3C//DTD SVG 20010904//EN"
 "http://www.w3.org/TR/2001/REC-SVG-20010904/DTD/svg10.dtd">
<svg version="1.0" xmlns="http://www.w3.org/2000/svg"
 width="320.000000pt" height="320.000000pt" viewBox="0 0 320.000000 320.000000"
 preserveAspectRatio="xMidYMid meet">
<metadata>
Created by potrace 1.11, written by Peter Selinger 2001-2013
</metadata>
<g transform="translate(0.000000,320.000000) scale(0.100000,-0.100000)"
fill="#000000" stroke="none">
<path d="M1567 3168 c-30 -40 -70 -118 -176 -340 -66 -140 -83 -168 -101 -168
-12 0 -75 22 -141 50 -66 27 -136 52 -155 56 l-34 6 0 -46 c0 -26 23 -191 50
-369 56 -358 70 -508 51 -531 -26 -31 -81 8 -343 239 -69 61 -137 116 -151
124 -47 25 -51 9 -49 -169 3 -140 1 -161 -13 -167 -9 -3 -72 9 -138 27 -245
66 -318 73 -332 30 -10 -31 34 -124 127 -270 115 -181 123 -199 106 -216 -7
-8 -62 -21 -121 -30 -110 -17 -158 -39 -142 -63 21 -35 156 -121 630 -401 173
-102 178 -106 163 -134 -6 -11 -57 -69 -114 -127 -57 -58 -104 -111 -104 -117
0 -25 61 -24 249 6 108 18 237 36 286 42 105 13 377 28 388 23 4 -2 7 -130 7
-284 l0 -281 29 -29 c40 -39 82 -39 122 0 l29 29 0 281 c0 154 3 282 8 284 10
5 282 -10 387 -23 50 -5 178 -24 286 -41 188 -30 249 -32 249 -7 0 6 -47 59
-104 117 -121 124 -133 142 -108 164 9 8 116 73 237 144 398 235 511 308 545
348 25 30 -16 50 -137 69 -59 9 -114 22 -121 30 -17 17 -9 35 106 216 93 146
137 239 127 270 -14 43 -87 36 -332 -30 -66 -18 -129 -30 -138 -27 -14 6 -16
27 -13 167 2 178 -2 194 -49 169 -14 -8 -82 -63 -151 -124 -262 -231 -317
-270 -343 -239 -19 23 -5 173 51 531 27 178 50 343 50 369 l0 46 -34 -6 c-19
-4 -89 -29 -155 -56 -66 -28 -129 -50 -141 -50 -18 0 -35 29 -101 168 -142
297 -185 372 -209 372 -5 0 -20 -15 -33 -32z"/>
</g>
</svg>
